# xmcd
#
# Track frame offsets: 
#        150
#        24142
#        37942
#        57106
#        74456
#        93113
#        104574
#        119066
#        136146
#        154746
#        165476
#        182912
#
# Disc length: 2720 seconds
#
# Revision: 0
# Processed by: cddbd v1.5.2PL0 Copyright (c) Steve Scherf et al.
# Submitted via: ExactAudioCopy v1.3
#
DISCID=970a9e0c
DTITLE=The Nighthawks - Back Porch Party
DYEAR=2015
DGENRE=Blues, Rock and Roll
TTITLE0=Rock This House
TTITLE1=Walkin' After Midnight
TTITLE2=Down In The Hole
TTITLE3=Matchbox
TTITLE4=Tiger In Your Tank
TTITLE5=Jana Lea
TTITLE6=Rollin' Stone
TTITLE7=Guard My Heart
TTITLE8=Down To My Last Million Tears
TTITLE9=Hey Miss Hey
TTITLE10=Rooster Blues
TTITLE11=Back To The City
EXTD=
EXTT0=
EXTT1=
EXTT2=
EXTT3=
EXTT4=
EXTT5=
EXTT6=
EXTT7=
EXTT8=
EXTT9=
EXTT10=
EXTT11=
PLAYORDER=
